<?xml version="1.0" encoding="utf-8"?>
<svg version="1.0" width="77.000000pt" height="68.000000pt" viewBox="0 0 77.000000 68.000000" preserveAspectRatio="xMidYMid meet" xmlns="http://www.w3.org/2000/svg" xmlns:bx="https://boxy-svg.com">
  <defs>
    <filter id="inner-shadow-filter-0" color-interpolation-filters="sRGB" x="-500%" y="-500%" width="1000%" height="1000%" bx:preset="inner-shadow 1 0 0 10 0.32 rgba(0,0,0,0.7)">
      <feOffset dx="0" dy="0"/>
      <feGaussianBlur stdDeviation="10"/>
      <feComposite operator="out" in="SourceGraphic"/>
      <feComponentTransfer result="choke">
        <feFuncA type="linear" slope="0.64"/>
      </feComponentTransfer>
      <feFlood flood-color="rgba(0,0,0,0.7)" result="color"/>
      <feComposite operator="in" in="color" in2="choke" result="shadow"/>
      <feComposite operator="over" in="shadow" in2="SourceGraphic"/>
    </filter>
    <filter id="drop-shadow-filter-0" color-interpolation-filters="sRGB" x="-500%" y="-500%" width="1000%" height="1000%" bx:preset="drop-shadow 1 3 3 4 0.49 rgba(0,0,0,0.3)">
      <feGaussianBlur in="SourceAlpha" stdDeviation="4"/>
      <feOffset dx="3" dy="3"/>
      <feComponentTransfer result="offsetblur">
        <feFuncA id="spread-ctrl" type="linear" slope="0.98"/>
      </feComponentTransfer>
      <feFlood flood-color="rgba(0,0,0,0.3)"/>
      <feComposite in2="offsetblur" operator="in"/>
      <feMerge>
        <feMergeNode/>
        <feMergeNode in="SourceGraphic"/>
      </feMerge>
    </filter>
    <filter id="inner-shadow-filter-1" color-interpolation-filters="sRGB" x="-500%" y="-500%" width="1000%" height="1000%" bx:preset="inner-shadow 1 0 0 4 0.2 rgba(0,0,0,0.7)">
      <feOffset dx="0" dy="0"/>
      <feGaussianBlur stdDeviation="4"/>
      <feComposite operator="out" in="SourceGraphic"/>
      <feComponentTransfer result="choke">
        <feFuncA type="linear" slope="0.4"/>
      </feComponentTransfer>
      <feFlood flood-color="rgba(0,0,0,0.7)" result="color"/>
      <feComposite operator="in" in="color" in2="choke" result="shadow"/>
      <feComposite operator="over" in="shadow" in2="SourceGraphic"/>
    </filter>
    <filter id="drop-shadow-filter-1" color-interpolation-filters="sRGB" x="-500%" y="-500%" width="1000%" height="1000%" bx:preset="drop-shadow 1 5 3 4 0.5 rgba(0,0,0,0.3)">
      <feGaussianBlur in="SourceAlpha" stdDeviation="4"/>
      <feOffset dx="5" dy="3"/>
      <feComponentTransfer result="offsetblur">
        <feFuncA id="spread-ctrl" type="linear" slope="1"/>
      </feComponentTransfer>
      <feFlood flood-color="rgba(0,0,0,0.3)"/>
      <feComposite in2="offsetblur" operator="in"/>
      <feMerge>
        <feMergeNode/>
        <feMergeNode in="SourceGraphic"/>
      </feMerge>
    </filter>
    <filter id="drop-shadow-filter-2" color-interpolation-filters="sRGB" x="-500%" y="-500%" width="1000%" height="1000%" bx:preset="drop-shadow 1 0 0 2 1 rgba(0,0,0,0.3)">
      <feGaussianBlur in="SourceAlpha" stdDeviation="2"/>
      <feOffset dx="0" dy="0"/>
      <feComponentTransfer result="offsetblur">
        <feFuncA id="spread-ctrl" type="linear" slope="2"/>
      </feComponentTransfer>
      <feFlood flood-color="rgba(0,0,0,0.3)"/>
      <feComposite in2="offsetblur" operator="in"/>
      <feMerge>
        <feMergeNode/>
        <feMergeNode in="SourceGraphic"/>
      </feMerge>
    </filter>
    <filter id="filter-1" color-interpolation-filters="sRGB" x="-500%" y="-500%" width="1000%" height="1000%" bx:preset="drop-shadow 1 0 0 2 1 rgba(0,0,0,0.3)">
      <feGaussianBlur in="SourceAlpha" stdDeviation="2"/>
      <feOffset dx="0" dy="0"/>
      <feComponentTransfer result="offsetblur">
        <feFuncA id="feFuncA-1" type="linear" slope="2"/>
      </feComponentTransfer>
      <feFlood flood-color="rgba(0,0,0,0.3)"/>
      <feComposite in2="offsetblur" operator="in"/>
      <feMerge>
        <feMergeNode/>
        <feMergeNode in="SourceGraphic"/>
      </feMerge>
    </filter>
    <filter id="filter-2" color-interpolation-filters="sRGB" x="-500%" y="-500%" width="1000%" height="1000%" bx:preset="drop-shadow 1 0 0 2 1 rgba(0,0,0,0.3)">
      <feGaussianBlur in="SourceAlpha" stdDeviation="2"/>
      <feOffset dx="0" dy="0"/>
      <feComponentTransfer result="offsetblur">
        <feFuncA id="feFuncA-2" type="linear" slope="2"/>
      </feComponentTransfer>
      <feFlood flood-color="rgba(0,0,0,0.3)"/>
      <feComposite in2="offsetblur" operator="in"/>
      <feMerge>
        <feMergeNode/>
        <feMergeNode in="SourceGraphic"/>
      </feMerge>
    </filter>
  </defs>
  <path d="M 13.3 1.7 C 1.6 7 -3.3 20.6 2.2 32.3 C 4.7 37.7 8.6 41.7 13.7 43.7 C 16.6 44.9 16.8 45.4 16.8 49.8 C 16.8 54.3 18.5 57.8 20.7 57.8 C 21 57.8 24.3 54.9 27.8 51.3 C 33.9 45.1 34.5 44.8 39 44.8 C 45 44.8 48.5 43.5 52.7 39.5 C 60.1 32.4 61.9 21.5 57.2 12 C 52.4 2.3 46.6 -0.2 28.8 -0.2 C 19.8 -0.2 16.4 0.2 13.3 1.7 Z" style="paint-order: fill; filter: url(#inner-shadow-filter-0) url(#drop-shadow-filter-0); fill: rgb(212, 167, 255);" stroke="none"/>
  <path d="M 62.5 30.4 C 59.1 41.4 50.1 48.8 40.1 48.8 C 34.2 48.8 33.3 50.1 37.1 53.5 C 40.5 56.6 43.3 57.8 47.5 57.8 C 50.8 57.8 52.1 58.5 56.2 62.7 C 60.3 66.8 61.5 67.5 63 66.7 C 64.3 66 64.8 64.6 64.8 61.9 C 64.8 58.5 65.2 57.9 67.9 56.8 C 69.6 56 72.3 53.7 73.9 51.5 C 79.3 44.1 77 31.3 69.5 26.8 C 67.7 25.7 65.8 24.8 65.3 24.8 C 64.7 24.8 63.4 27.3 62.5 30.4 Z" style="paint-order: fill; filter: url(#inner-shadow-filter-1) url(#drop-shadow-filter-1); fill: rgb(143, 125, 185);" stroke="none"/>
  <ellipse style="stroke: rgba(0, 0, 0, 0); filter: url(#drop-shadow-filter-2); fill: rgb(21, 0, 40);" cx="17.53" cy="22.826" rx="3.698" ry="3.698"/>
  <ellipse style="stroke: rgba(0, 0, 0, 0); filter: url(#filter-1); fill: rgb(21, 0, 40);" cx="29.891" cy="22.872" rx="3.698" ry="3.698"/>
  <ellipse style="stroke: rgba(0, 0, 0, 0); filter: url(#filter-2); fill: rgb(21, 0, 40);" cx="41.888" cy="22.965" rx="3.698" ry="3.698"/>
</svg>