<?xml version="1.0" standalone="no"?>
<!DOCTYPE svg PUBLIC "-//W3C//DTD SVG 20010904//EN"
 "http://www.w3.org/TR/2001/REC-SVG-20010904/DTD/svg10.dtd">
<svg version="1.0" xmlns="http://www.w3.org/2000/svg"
 width="150.000000pt" height="150.000000pt" viewBox="0 0 150.000000 150.000000"
 preserveAspectRatio="xMidYMid meet">

<g transform="translate(0.000000,150.000000) scale(0.100000,-0.100000)"
fill="#000000" stroke="none">
<path d="M36 1484 c-9 -8 -16 -21 -16 -27 0 -17 127 -577 131 -581 2 -1 158
-29 347 -61 188 -32 342 -61 342 -65 0 -4 -154 -33 -342 -65 -189 -32 -345
-60 -347 -61 -10 -8 -130 -572 -126 -591 3 -12 14 -25 25 -28 15 -5 207 88
708 345 378 194 695 359 705 368 9 8 17 23 17 32 0 9 -8 24 -17 32 -22 19
-1385 718 -1400 718 -6 0 -19 -7 -27 -16z"/>
</g>
</svg>
